<?xml version="1.0" standalone="no"?>
<!DOCTYPE svg PUBLIC "-//W3C//DTD SVG 20010904//EN"
 "http://www.w3.org/TR/2001/REC-SVG-20010904/DTD/svg10.dtd">
<svg version="1.0" xmlns="http://www.w3.org/2000/svg"
 width="150.000000pt" height="150.000000pt" viewBox="0 0 150.000000 150.000000"
 preserveAspectRatio="xMidYMid meet">

<g transform="translate(0.000000,150.000000) scale(0.100000,-0.100000)"
fill="#000000" stroke="none">
<path d="M0 750 l0 -750 417 0 c310 1 421 4 432 13 12 9 13 9 7 0 -5 -9 -1
-13 13 -13 10 0 22 6 24 13 4 9 6 9 6 0 1 -10 68 -13 301 -13 l300 0 0 750 0
750 -417 0 c-418 -1 -418 -1 -383 -20 19 -11 31 -19 25 -20 -5 0 -25 9 -43 20
-31 19 -50 20 -357 20 l-325 0 0 -750z m609 674 c10 -9 -35 -3 -49 6 -11 8 -7
9 15 4 17 -4 32 -8 34 -10z m-40 -60 c9 -8 -45 -2 -64 6 -14 7 -8 8 20 3 22
-3 42 -7 44 -9z m-99 -109 c-13 -14 -28 -25 -34 -25 -6 0 3 11 19 25 39 31 45
32 15 0z m535 -90 c-7 -60 -11 -111 -10 -113 1 -1 17 19 34 45 29 44 33 38 13
-16 -4 -10 -1 -13 11 -8 16 6 16 4 2 -30 -19 -45 -12 -56 10 -14 8 17 18 31
21 31 3 0 4 -21 3 -46 -3 -46 -3 -46 -33 -38 -54 13 -189 9 -216 -5 -26 -15
-130 -24 -130 -12 0 31 -161 52 -209 28 l-31 -15 0 63 c0 97 6 105 119 169 56
31 103 56 106 56 2 0 -5 -25 -16 -57 -10 -31 -18 -57 -17 -59 2 -1 82 28 178
65 96 37 176 67 177 67 0 -1 -5 -50 -12 -111z m-618 -47 c-3 -7 -5 -2 -5 12 0
14 2 19 5 13 2 -7 2 -19 0 -25z m278 -152 c31 -13 35 -19 35 -51 0 -43 -23
-90 -49 -105 -38 -20 -91 -12 -121 19 -49 48 -52 123 -7 141 34 14 104 12 142
-4z m-228 -28 c17 -18 36 -49 42 -69 22 -70 92 -110 156 -89 41 14 85 71 85
111 0 29 15 39 61 39 26 0 29 -3 29 -32 -1 -47 -18 -119 -36 -147 -20 -30 -35
-16 -45 41 l-8 43 3 -45 c1 -25 6 -52 10 -61 4 -10 -1 -19 -18 -28 -43 -24
-58 -67 -54 -159 1 -45 0 -82 -3 -82 -22 0 -132 217 -165 323 -15 49 -25 63
-66 92 -34 25 -48 42 -48 58 0 46 16 48 57 5z m581 16 c26 -18 29 -61 7 -104
-56 -108 -205 -61 -193 61 2 24 10 37 28 46 36 18 131 16 158 -3z m123 6 c10
-6 19 -17 19 -26 0 -16 -34 -54 -64 -71 -12 -6 -24 -38 -37 -98 -22 -99 -54
-174 -97 -224 l-29 -35 -11 90 c-13 103 -36 134 -99 134 -29 0 -34 3 -29 17 4
9 10 37 13 61 l6 43 17 -26 c26 -40 58 -58 102 -58 65 0 124 60 130 131 2 22
6 31 15 27 8 -2 19 6 25 20 13 29 13 29 39 15z m-302 -279 c17 -11 54 -210 41
-225 -5 -7 0 -12 16 -12 20 -2 26 4 31 27 3 16 9 29 13 29 9 0 18 -67 11 -78
-13 -16 -122 -93 -129 -90 -4 2 -40 21 -79 42 -57 31 -69 42 -58 50 9 7 18 49
25 110 11 106 18 122 65 142 36 16 46 16 64 5z"/>
<path d="M850 1110 c0 -5 4 -10 9 -10 5 0 22 -13 38 -30 33 -35 43 -37 43 -11
0 11 -12 29 -26 40 -28 22 -64 28 -64 11z"/>
<path d="M570 1082 c-14 -11 -21 -26 -18 -40 3 -22 5 -21 43 17 34 36 36 41
18 41 -11 0 -31 -8 -43 -18z"/>
<path d="M558 919 c-25 -14 -23 -32 2 -19 15 8 18 7 15 -2 -3 -7 0 -20 5 -28
12 -19 46 0 43 25 0 10 4 14 13 11 8 -3 14 -1 14 3 0 21 -63 28 -92 10z"/>
<path d="M430 916 c0 -2 8 -10 18 -17 15 -13 16 -12 3 4 -13 16 -21 21 -21 13z"/>
<path d="M908 939 c-10 -5 -18 -15 -18 -21 0 -6 6 -5 16 3 13 11 15 11 14 -2
-5 -31 1 -40 23 -37 16 2 22 9 21 26 0 18 3 21 20 17 21 -6 21 -6 2 9 -23 18
-53 20 -78 5z"/>
<path d="M1099 913 c-13 -16 -12 -17 4 -4 9 7 17 15 17 17 0 8 -8 3 -21 -13z"/>
<path d="M813 638 c-13 -13 -34 -21 -54 -21 -29 0 -30 -2 -13 -14 28 -20 61
-15 83 13 35 45 23 61 -16 22z"/>
<path d="M835 430 c-11 -5 -38 -9 -60 -10 -34 -2 -36 -3 -15 -9 27 -8 77 2 94
19 12 12 8 12 -19 0z"/>
</g>
</svg>
